<?xml version="1.0" encoding="utf-8"?>
<!-- Generator: Adobe Illustrator 19.1.0, SVG Export Plug-In . SVG Version: 6.00 Build 0)  -->
<svg version="1.1" id="Layer_1" xmlns="http://www.w3.org/2000/svg" xmlns:xlink="http://www.w3.org/1999/xlink" x="0px" y="0px"
	 viewBox="0 0 365.5 56.6" style="enable-background:new 0 0 365.5 56.6;" xml:space="preserve">
<style type="text/css">
	.st0{fill:#FFFFFF;}
</style>
<path class="st0" d="M21.5,10.7c-1.6-2.2-3-3.6-4.1-4.4c-1.1-0.7-2.4-1.1-3.9-1.1s-2.8,0.5-3.8,1.4c-1,1-1.5,2.2-1.5,3.7
	s0.5,2.8,1.4,3.9c1,1.1,3.2,3,6.6,5.5c3.5,2.5,6,4.9,7.6,7.2c1.6,2.2,2.4,4.6,2.4,7.1c0,3.2-1.3,6.1-3.8,8.4
	c-2.5,2.4-5.4,3.6-8.7,3.6c-5.8,0-10.4-3.3-13.7-9.8l4.4-2.5C7,38.6,9.9,41,13.1,41c2.1,0,3.9-0.7,5.3-2c1.5-1.3,2.2-2.9,2.2-4.6
	c0-1.8-0.6-3.4-1.9-5c-1.2-1.6-3.4-3.5-6.4-5.8c-3-2.3-5.1-4-6.3-5.2c-1.1-1.2-2-2.5-2.5-3.8c-0.5-1.4-0.8-2.7-0.8-4.1
	c0-2.9,1-5.4,3-7.4c2-2,4.6-3,7.8-3c2.5,0,4.6,0.6,6.5,1.9c1.8,1.3,3.6,3.1,5.4,5.6L21.5,10.7z M38.1,45h-4.9V0h4.9V45z M61.3,11.5
	c4.7,0,8.7,1.7,12,5.1c3.3,3.4,5,7.5,5,12.2c0,4.8-1.6,8.8-4.9,12.2c-3.3,3.4-7.3,5.1-12.1,5.1c-4.8,0-8.8-1.7-12.1-5.1
	c-3.3-3.4-4.9-7.4-4.9-12.2c0-4.8,1.7-8.8,5-12.2C52.5,13.2,56.6,11.5,61.3,11.5z M61.3,41.3c3.3,0,6.2-1.2,8.5-3.6
	c2.3-2.4,3.5-5.3,3.5-8.8s-1.2-6.4-3.6-8.9c-2.4-2.5-5.2-3.8-8.5-3.8c-3.3,0-6.1,1.3-8.4,3.8c-2.4,2.5-3.5,5.5-3.5,8.9
	c0,3.4,1.1,6.4,3.4,8.8C55,40.1,57.9,41.3,61.3,41.3z M117.7,45h-4.9v-4.8c-3.6,3.9-7.7,5.9-12.3,5.9c-4.6,0-8.6-1.7-11.9-5.1
	c-3.3-3.4-5-7.5-5-12.2c0-4.7,1.7-8.8,5-12.2c3.3-3.4,7.4-5.1,12.2-5.1c4.8,0,8.8,1.9,12,5.8v-5h4.9V45z M100.9,41.5
	c3.3,0,6.2-1.2,8.6-3.6c2.4-2.4,3.6-5.4,3.6-9c0-3.6-1.2-6.6-3.5-9c-2.4-2.4-5.2-3.6-8.7-3.6s-6.3,1.3-8.7,3.8
	c-2.4,2.5-3.5,5.5-3.5,8.8c0,3.4,1.2,6.4,3.6,8.9C94.6,40.2,97.5,41.5,100.9,41.5z M154.7,45h-4.9V29.4c0-3.6-0.2-6-0.5-7.3
	c-0.3-1.3-0.8-2.4-1.5-3.3c-0.7-0.9-1.5-1.6-2.5-2c-1-0.4-2.3-0.7-3.7-0.7c-1.5,0-2.9,0.4-4.3,1.1c-1.4,0.7-2.6,1.7-3.6,3
	c-1,1.3-1.7,2.6-2.1,4.1c-0.4,1.4-0.6,4.3-0.6,8.6V45h-5V12.3h5v4.9c3.2-3.8,7.1-5.8,11.5-5.8c2.4,0,4.5,0.6,6.4,1.8
	c1.9,1.2,3.4,2.9,4.3,5c1,2.1,1.4,5.4,1.4,9.9V45z M219.5,37c-4.7,6.1-11.2,9.1-19.4,9.1c-7,0-12.7-2.2-17.1-6.6
	c-4.4-4.4-6.7-10-6.7-16.7c0-4.2,1-8,3.1-11.5c2.1-3.5,4.9-6.3,8.5-8.3c3.6-2,7.6-3,11.8-3c4.2,0,8,0.8,11.3,2.4s6.1,4,8.4,7.1
	l-4,3.1c-4.2-5-9.3-7.6-15.4-7.6c-5,0-9.3,1.8-12.9,5.3c-3.6,3.5-5.4,7.8-5.4,12.9s1.8,9.4,5.3,12.8c3.5,3.4,8.1,5.1,13.8,5.1
	c5.6,0,10.5-2.4,14.7-7.3L219.5,37z M254.3,12.3L235,56.6h-5.2l6.3-14.4l-13.3-29.9h5.2l10.7,23.9l10.4-23.9H254.3z M290.6,38.3
	c-1.7,2.5-4,4.4-6.8,5.8c-2.8,1.3-5.8,2-9,2c-5,0-9.2-1.7-12.6-5c-3.4-3.3-5.1-7.4-5.1-12.2c0-4.8,1.7-8.9,5.1-12.3
	c3.4-3.4,7.8-5.1,13.2-5.1c3.2,0,6.1,0.7,8.8,2.1c2.7,1.4,4.8,3.4,6.3,5.9l-3.9,2.5c-2.9-3.8-6.7-5.7-11.5-5.7
	c-3.7,0-6.8,1.2-9.4,3.6c-2.5,2.4-3.8,5.3-3.8,8.9c0,3.5,1.2,6.5,3.7,9.1c2.5,2.5,5.6,3.8,9.4,3.8c4.6,0,8.4-1.9,11.5-5.8
	L290.6,38.3z M301.7,45h-4.9V0h4.9V45z M341.6,29.5H313c0.2,3.6,1.4,6.5,3.6,8.7c2.2,2.2,4.9,3.3,8,3.3c5.2,0,9.2-2.6,12-7.7
	l4.2,2.2c-1.9,3.5-4.1,6.1-6.7,7.7c-2.6,1.7-5.6,2.5-9.2,2.5c-4.9,0-9-1.7-12.2-5.1c-3.2-3.4-4.8-7.4-4.8-12.2
	c0-4.8,1.6-8.8,4.8-12.2c3.2-3.4,7.2-5.1,12-5.1c4.8,0,8.7,1.6,11.9,4.8C339.9,19.5,341.5,23.9,341.6,29.5z M336.1,25.1
	c-0.6-2.8-2-5-4.1-6.5s-4.6-2.3-7.3-2.3c-5.6,0-9.3,3-11.2,8.9H336.1z M365.5,16.1l-3.2,3.3c-2.4-2.2-4.5-3.3-6.5-3.3
	c-1.2,0-2.3,0.4-3.1,1.2c-0.8,0.8-1.3,1.7-1.3,2.9c0,1.1,0.5,2.1,1.4,3c0.9,0.9,2.6,1.9,5,3.2c2.4,1.3,4.2,2.7,5.6,4.2
	c1.3,1.5,1.9,3.4,1.9,5.6c0,2.8-1,5.2-2.9,7.1c-1.9,1.9-4.3,2.9-7.2,2.9c-4,0-7.3-1.7-9.9-5l3.1-3.5c2.2,2.5,4.4,3.8,6.6,3.8
	c1.5,0,2.8-0.5,3.9-1.5c1.1-1,1.6-2.2,1.6-3.5c0-1.3-0.5-2.5-1.5-3.4s-2.7-2-5-3.1c-2.4-1.2-4.2-2.5-5.4-4c-1.2-1.5-1.8-3.4-1.8-5.8
	c0-2.4,0.9-4.4,2.6-6.1c1.7-1.7,4-2.5,6.9-2.5C359.2,11.5,362.3,13,365.5,16.1z"/>
</svg>
