<?xml version="1.0" encoding="utf-8"?>
<!-- Generator: Adobe Illustrator 19.1.0, SVG Export Plug-In . SVG Version: 6.00 Build 0)  -->
<svg version="1.2" baseProfile="tiny" id="Layer_1" xmlns="http://www.w3.org/2000/svg" xmlns:xlink="http://www.w3.org/1999/xlink"
	 x="0px" y="0px" viewBox="0 0 293.2 44.2" xml:space="preserve">
<g>
	<path fill="#E93D39" d="M43.2,0v15.5c1.4-1.4,3-2.5,4.6-3.2c1.7-0.7,3.4-1.1,5.3-1.1c4.1,0,7.6,1.5,10.4,4.6
		c2.9,3.1,4.3,7.1,4.3,11.9c0,4.7-1.5,8.6-4.4,11.7c-3,3.1-6.5,4.7-10.5,4.7c-1.8,0-3.5-0.3-5-1s-3.1-1.7-4.6-3.2v3.3h-7.8V0H43.2z
		 M51.5,18.5c-2.5,0-4.5,0.8-6.2,2.5c-1.6,1.7-2.4,3.9-2.4,6.6c0,2.8,0.8,5,2.4,6.7c1.6,1.7,3.7,2.6,6.2,2.6c2.4,0,4.4-0.9,6.1-2.6
		s2.5-4,2.5-6.7c0-2.7-0.8-4.9-2.4-6.6C56,19.4,53.9,18.5,51.5,18.5z M72.5,12.1h6.7V16c0.7-1.6,1.7-2.7,2.9-3.5
		c1.2-0.8,2.5-1.2,4-1.2c1,0,2.1,0.3,3.2,0.8l-2.4,6.8c-0.9-0.5-1.7-0.7-2.3-0.7c-1.2,0-2.2,0.7-3.1,2.2c-0.8,1.5-1.3,4.4-1.3,8.8
		l0,1.5v12.7h-7.8V12.1z M116.3,12.1h7.9v31.3h-7.9v-3.3c-1.5,1.5-3.1,2.5-4.6,3.2c-1.5,0.6-3.2,1-5,1c-4,0-7.5-1.6-10.5-4.7
		c-3-3.1-4.4-7-4.4-11.7c0-4.8,1.4-8.8,4.3-11.9c2.9-3.1,6.3-4.6,10.4-4.6c1.9,0,3.6,0.4,5.3,1.1c1.6,0.7,3.2,1.8,4.6,3.2V12.1z
		 M108,18.5c-2.4,0-4.4,0.9-6.1,2.6c-1.6,1.7-2.4,3.9-2.4,6.6c0,2.7,0.8,4.9,2.5,6.7s3.6,2.6,6,2.6c2.5,0,4.5-0.9,6.1-2.6
		c1.6-1.7,2.4-4,2.4-6.7c0-2.7-0.8-4.9-2.4-6.6S110.5,18.5,108,18.5z M132.1,12.1h7.9v3.2c1.8-1.5,3.4-2.5,4.8-3.1
		c1.4-0.6,2.9-0.9,4.4-0.9c3.1,0,5.7,1.1,7.9,3.3c1.8,1.8,2.7,4.6,2.7,8.2v20.7h-7.8V29.7c0-3.7-0.2-6.2-0.5-7.4s-0.9-2.2-1.8-2.8
		c-0.8-0.6-1.9-1-3.1-1c-1.6,0-3,0.5-4.1,1.6c-1.1,1.1-1.9,2.5-2.4,4.4c-0.2,1-0.3,3.1-0.3,6.4v12.6h-7.9V12.1z M190.6,0h7.9v43.4
		h-7.9v-3.3c-1.5,1.5-3.1,2.5-4.6,3.2s-3.2,1-5,1c-4,0-7.5-1.6-10.5-4.7c-3-3.1-4.4-7-4.4-11.7c0-4.8,1.4-8.8,4.3-11.9
		c2.9-3.1,6.3-4.6,10.4-4.6c1.9,0,3.6,0.4,5.3,1.1c1.6,0.7,3.2,1.8,4.6,3.2V0z M182.3,18.5c-2.4,0-4.4,0.9-6.1,2.6
		c-1.6,1.7-2.4,3.9-2.4,6.6c0,2.7,0.8,4.9,2.5,6.7c1.6,1.7,3.6,2.6,6,2.6c2.5,0,4.5-0.9,6.1-2.6c1.6-1.7,2.4-4,2.4-6.7
		c0-2.7-0.8-4.9-2.4-6.6S184.8,18.5,182.3,18.5z"/>
	<path fill="#949599" d="M0,12.1h7.9v15.1c0,2.9,0.2,5,0.6,6.1c0.4,1.1,1.1,2,1.9,2.7c0.9,0.6,2,1,3.3,1s2.4-0.3,3.3-0.9
		c0.9-0.6,1.6-1.5,2-2.7c0.3-0.9,0.5-2.8,0.5-5.8V12.1h7.9v13.3c0,5.5-0.4,9.2-1.3,11.2c-1.1,2.5-2.6,4.3-4.7,5.7
		c-2.1,1.3-4.7,2-7.8,2c-3.4,0-6.2-0.8-8.3-2.3c-2.1-1.5-3.6-3.7-4.5-6.4C0.3,33.6,0,30.1,0,25.1V12.1z M206.3,12.1h7.9v3.6
		c1.3-1.5,2.8-2.6,4.5-3.3c1.6-0.7,3.4-1.1,5.4-1.1c2,0,3.7,0.5,5.3,1.4c1.6,1,2.8,2.4,3.8,4.2c1.2-1.8,2.8-3.2,4.6-4.2
		c1.8-1,3.8-1.4,5.9-1.4c2.2,0,4.2,0.5,5.9,1.6s2.9,2.4,3.6,4.1c0.7,1.7,1.1,4.4,1.1,8.1v18.4h-7.9V27.5c0-3.5-0.4-6-1.3-7.2
		s-2.2-1.9-4-1.9c-1.3,0-2.5,0.4-3.6,1.2c-1.1,0.8-1.9,1.8-2.4,3.2c-0.5,1.4-0.8,3.5-0.8,6.5v14.1h-7.9V28.2c0-2.8-0.2-4.8-0.6-6.1
		c-0.4-1.3-1-2.2-1.9-2.8c-0.8-0.6-1.8-0.9-3-0.9c-1.3,0-2.5,0.4-3.6,1.2c-1.1,0.8-1.9,1.9-2.4,3.3c-0.5,1.4-0.8,3.6-0.8,6.6v13.9
		h-7.9V12.1z M293.1,30h-25.2c0.4,2.2,1.3,4,2.9,5.3s3.6,2,6.1,2c2.9,0,5.5-1,7.6-3.1l6.6,3.1c-1.7,2.3-3.6,4.1-5.9,5.2
		c-2.3,1.1-5,1.7-8.2,1.7c-4.9,0-8.9-1.5-12-4.6c-3.1-3.1-4.6-7-4.6-11.6c0-4.8,1.5-8.7,4.6-11.9c3.1-3.2,6.9-4.7,11.6-4.7
		c4.9,0,8.9,1.6,12,4.7c3.1,3.2,4.6,7.3,4.6,12.5L293.1,30z M285.3,23.8c-0.5-1.7-1.5-3.2-3.1-4.3c-1.5-1.1-3.3-1.6-5.3-1.6
		c-2.2,0-4.1,0.6-5.8,1.8c-1,0.8-2,2.1-2.9,4.1H285.3z"/>
</g>
</svg>
