<?xml version="1.0" encoding="utf-8"?>
<!-- Generator: Adobe Illustrator 19.1.0, SVG Export Plug-In . SVG Version: 6.00 Build 0)  -->
<svg version="1.1" id="Layer_1" xmlns="http://www.w3.org/2000/svg" xmlns:xlink="http://www.w3.org/1999/xlink" x="0px" y="0px"
	 viewBox="-248.5 284.3 294.2 45.3" style="enable-background:new -248.5 284.3 294.2 45.3;" xml:space="preserve">
<style type="text/css">
	.st0{fill:#E93D39;stroke:#E93D39;stroke-miterlimit:10;}
	.st1{fill:#949599;stroke:#949599;stroke-miterlimit:10;}
</style>
<g>
	<path class="st0" d="M-204.8,284.8v15.5c1.4-1.4,3-2.5,4.6-3.2c1.7-0.7,3.4-1.1,5.3-1.1c4.1,0,7.6,1.5,10.4,4.6
		c2.9,3.1,4.3,7.1,4.3,11.9c0,4.7-1.5,8.6-4.4,11.7c-3,3.1-6.5,4.7-10.5,4.7c-1.8,0-3.5-0.3-5-1c-1.5-0.7-3.1-1.7-4.6-3.2v3.3h-7.8
		v-43.2H-204.8z M-196.5,303.3c-2.5,0-4.5,0.8-6.2,2.5c-1.6,1.7-2.4,3.9-2.4,6.6c0,2.8,0.8,5,2.4,6.7c1.6,1.7,3.7,2.6,6.2,2.6
		c2.4,0,4.4-0.9,6.1-2.6c1.7-1.7,2.5-4,2.5-6.7c0-2.7-0.8-4.9-2.4-6.6C-192,304.2-194.1,303.3-196.5,303.3z M-175.5,296.9h6.7v3.9
		c0.7-1.6,1.7-2.7,2.9-3.5c1.2-0.8,2.5-1.2,4-1.2c1,0,2.1,0.3,3.2,0.8l-2.4,6.8c-0.9-0.5-1.7-0.7-2.3-0.7c-1.2,0-2.2,0.7-3.1,2.2
		c-0.8,1.5-1.3,4.4-1.3,8.8v1.5v12.7h-7.8v-31.3H-175.5z M-131.7,296.9h7.9v31.3h-7.9v-3.3c-1.5,1.5-3.1,2.5-4.6,3.2
		c-1.5,0.6-3.2,1-5,1c-4,0-7.5-1.6-10.5-4.7s-4.4-7-4.4-11.7c0-4.8,1.4-8.8,4.3-11.9s6.3-4.6,10.4-4.6c1.9,0,3.6,0.4,5.3,1.1
		c1.6,0.7,3.2,1.8,4.6,3.2v-3.6H-131.7z M-140,303.3c-2.4,0-4.4,0.9-6.1,2.6c-1.6,1.7-2.4,3.9-2.4,6.6c0,2.7,0.8,4.9,2.5,6.7
		c1.7,1.8,3.6,2.6,6,2.6c2.5,0,4.5-0.9,6.1-2.6c1.6-1.7,2.4-4,2.4-6.7c0-2.7-0.8-4.9-2.4-6.6C-135.5,304.2-137.5,303.3-140,303.3z
		 M-115.9,296.9h7.9v3.2c1.8-1.5,3.4-2.5,4.8-3.1c1.4-0.6,2.9-0.9,4.4-0.9c3.1,0,5.7,1.1,7.9,3.3c1.8,1.8,2.7,4.6,2.7,8.2v20.7H-96
		v-13.8c0-3.7-0.2-6.2-0.5-7.4c-0.3-1.2-0.9-2.2-1.8-2.8c-0.8-0.6-1.9-1-3.1-1c-1.6,0-3,0.5-4.1,1.6s-1.9,2.5-2.4,4.4
		c-0.2,1-0.3,3.1-0.3,6.4v12.6h-7.9v-31.4H-115.9z M-57.4,284.8h7.9v43.4h-7.9v-3.3c-1.5,1.5-3.1,2.5-4.6,3.2c-1.5,0.7-3.2,1-5,1
		c-4,0-7.5-1.6-10.5-4.7s-4.4-7-4.4-11.7c0-4.8,1.4-8.8,4.3-11.9c2.9-3.1,6.3-4.6,10.4-4.6c1.9,0,3.6,0.4,5.3,1.1
		c1.6,0.7,3.2,1.8,4.6,3.2v-15.7H-57.4z M-65.7,303.3c-2.4,0-4.4,0.9-6.1,2.6c-1.6,1.7-2.4,3.9-2.4,6.6c0,2.7,0.8,4.9,2.5,6.7
		c1.6,1.7,3.6,2.6,6,2.6c2.5,0,4.5-0.9,6.1-2.6c1.6-1.7,2.4-4,2.4-6.7c0-2.7-0.8-4.9-2.4-6.6C-61.2,304.2-63.2,303.3-65.7,303.3z"/>
	<path class="st1" d="M-248,296.9h7.9V312c0,2.9,0.2,5,0.6,6.1c0.4,1.1,1.1,2,1.9,2.7c0.9,0.6,2,1,3.3,1s2.4-0.3,3.3-0.9
		s1.6-1.5,2-2.7c0.3-0.9,0.5-2.8,0.5-5.8v-15.5h7.9v13.3c0,5.5-0.4,9.2-1.3,11.2c-1.1,2.5-2.6,4.3-4.7,5.7c-2.1,1.3-4.7,2-7.8,2
		c-3.4,0-6.2-0.8-8.3-2.3c-2.1-1.5-3.6-3.7-4.5-6.4c-0.5-2-0.8-5.5-0.8-10.5V296.9z M-41.7,296.9h7.9v3.6c1.3-1.5,2.8-2.6,4.5-3.3
		c1.6-0.7,3.4-1.1,5.4-1.1s3.7,0.5,5.3,1.4c1.6,1,2.8,2.4,3.8,4.2c1.2-1.8,2.8-3.2,4.6-4.2s3.8-1.4,5.9-1.4c2.2,0,4.2,0.5,5.9,1.6
		s2.9,2.4,3.6,4.1c0.7,1.7,1.1,4.4,1.1,8.1v18.4h-7.9v-16c0-3.5-0.4-6-1.3-7.2c-0.9-1.2-2.2-1.9-4-1.9c-1.3,0-2.5,0.4-3.6,1.2
		c-1.1,0.8-1.9,1.8-2.4,3.2c-0.5,1.4-0.8,3.5-0.8,6.5v14.1h-7.9V313c0-2.8-0.2-4.8-0.6-6.1c-0.4-1.3-1-2.2-1.9-2.8
		c-0.8-0.6-1.8-0.9-3-0.9c-1.3,0-2.5,0.4-3.6,1.2c-1.1,0.8-1.9,1.9-2.4,3.3s-0.8,3.6-0.8,6.6v13.9h-7.9L-41.7,296.9L-41.7,296.9z
		 M45.1,314.8H19.9c0.4,2.2,1.3,4,2.9,5.3c1.6,1.3,3.6,2,6.1,2c2.9,0,5.5-1,7.6-3.1l6.6,3.1c-1.7,2.3-3.6,4.1-5.9,5.2
		s-5,1.7-8.2,1.7c-4.9,0-8.9-1.5-12-4.6s-4.6-7-4.6-11.6c0-4.8,1.5-8.7,4.6-11.9c3.1-3.2,6.9-4.7,11.6-4.7c4.9,0,8.9,1.6,12,4.7
		c3.1,3.2,4.6,7.3,4.6,12.5L45.1,314.8z M37.3,308.6c-0.5-1.7-1.5-3.2-3.1-4.3c-1.5-1.1-3.3-1.6-5.3-1.6c-2.2,0-4.1,0.6-5.8,1.8
		c-1,0.8-2,2.1-2.9,4.1H37.3z"/>
</g>
</svg>
